<svg id="next" xmlns="http://www.w3.org/2000/svg" width="383.714" height="383.776" viewBox="0 0 383.714 383.776">
  <path id="Tracé_20" data-name="Tracé 20" d="M279.089-446.5c48.8,6.1,92.7,29.8,123.8,67,74,88.4,54.5,221-41.9,284.1A191.68,191.68,0,0,1,173.189-83a190.362,190.362,0,0,1-90.1-90.1,191.689,191.689,0,0,1,49.5-229.7C173.289-437,226.789-453,279.089-446.5Zm-48,145-45.5,45.5,45.5,45.5,45.5,45.5,11.2-11.2,11.3-11.3-34.2-34.2-34.3-34.3,34.5-34.5,34.4-34.4-10.9-11.1c-6.1-6-11.2-11-11.5-11S256.089-326.5,231.089-301.5Z" transform="translate(-64.188 447.922)" fill="#fff"/>
</svg>
