<svg xmlns="http://www.w3.org/2000/svg" width="28.773" height="31" viewBox="0 0 28.773 31">
  <g id="logout-svgrepo-com" transform="translate(-17.6)">
    <g id="Groupe_141" data-name="Groupe 141" transform="translate(17.6 0)">
      <g id="Groupe_140" data-name="Groupe 140" transform="translate(0 0)">
        <path id="Tracé_96" data-name="Tracé 96" d="M141.665,136.907l.013-.013a.483.483,0,0,0,.051-.07c.006-.006.006-.013.013-.019.013-.025.032-.051.044-.076a.022.022,0,0,1,.006-.013c.013-.025.025-.051.038-.082,0-.006,0-.006.006-.013.013-.025.019-.057.032-.089,0-.006,0-.013.006-.013a.443.443,0,0,0,.019-.089.057.057,0,0,1,.006-.032c.006-.025.006-.051.013-.076a.917.917,0,0,0,0-.215.317.317,0,0,0-.013-.076.057.057,0,0,0-.006-.032c-.006-.032-.013-.057-.019-.089,0-.006,0-.013-.006-.013a.5.5,0,0,0-.032-.089c0-.006,0-.006-.006-.013-.013-.025-.025-.057-.038-.082a.022.022,0,0,0-.006-.013.471.471,0,0,0-.044-.076c-.006-.006-.006-.013-.013-.019a.664.664,0,0,0-.051-.07l-.013-.013a.9.9,0,0,0-.076-.082l-6.258-6.252a1.087,1.087,0,0,0-1.538,1.538l4.4,4.4H120.688a1.085,1.085,0,1,0,0,2.17H138.2l-4.373,4.373a1.085,1.085,0,1,0,1.531,1.538l6.22-6.22C141.615,136.957,141.64,136.932,141.665,136.907Z" transform="translate(-113.146 -120.72)" fill="#fff"/>
        <path id="Tracé_97" data-name="Tracé 97" d="M23.491,2.17h8.1a1.085,1.085,0,1,0,0-2.17h-8.1A5.9,5.9,0,0,0,17.6,5.891V25.109A5.9,5.9,0,0,0,23.491,31h7.967a1.085,1.085,0,1,0,0-2.17H23.491a3.727,3.727,0,0,1-3.721-3.721V5.891A3.727,3.727,0,0,1,23.491,2.17Z" transform="translate(-17.6 0)" fill="#fff"/>
      </g>
    </g>
  </g>
</svg>
