<svg xmlns="http://www.w3.org/2000/svg" width="35.733" height="38.5" viewBox="0 0 35.733 38.5">
  <g id="logout-svgrepo-com" transform="translate(-17.6)">
    <g id="Groupe_141" data-name="Groupe 141" transform="translate(17.6)">
      <g id="Groupe_140" data-name="Groupe 140">
        <path id="Tracé_96" data-name="Tracé 96" d="M147,138.852l.016-.016a.6.6,0,0,0,.063-.087c.007-.007.007-.016.016-.024.016-.031.04-.063.055-.094a.027.027,0,0,1,.007-.016c.016-.031.031-.063.047-.1,0-.007,0-.007.007-.016.016-.031.024-.071.04-.111,0-.007,0-.016.007-.016a.55.55,0,0,0,.024-.111.071.071,0,0,1,.007-.04c.007-.031.007-.063.016-.094a1.138,1.138,0,0,0,0-.267.393.393,0,0,0-.016-.094.071.071,0,0,0-.007-.04c-.007-.04-.016-.071-.024-.111,0-.007,0-.016-.007-.016a.621.621,0,0,0-.04-.111c0-.007,0-.007-.007-.016-.016-.031-.031-.071-.047-.1a.028.028,0,0,0-.007-.016.588.588,0,0,0-.055-.094c-.007-.007-.007-.016-.016-.024a.823.823,0,0,0-.063-.087l-.016-.016a1.118,1.118,0,0,0-.094-.1l-7.772-7.765a1.351,1.351,0,0,0-1.91,1.91l5.465,5.464h-21.74a1.348,1.348,0,0,0,0,2.7H142.7l-5.431,5.431a1.348,1.348,0,0,0,1.9,1.91l7.725-7.725A1.282,1.282,0,0,0,147,138.852Z" transform="translate(-111.584 -118.748)" fill="#fff"/>
        <path id="Tracé_97" data-name="Tracé 97" d="M24.916,2.695h10.06a1.347,1.347,0,0,0,0-2.695H24.916A7.327,7.327,0,0,0,17.6,7.316V31.184A7.327,7.327,0,0,0,24.916,38.5h9.894a1.348,1.348,0,0,0,0-2.7H24.916a4.629,4.629,0,0,1-4.621-4.621V7.316a4.629,4.629,0,0,1,4.621-4.621Z" transform="translate(-17.6)" fill="#fff"/>
      </g>
    </g>
  </g>
</svg>
